<svg width="64" height="64" viewBox="0 0 64 64" fill="none" xmlns="http://www.w3.org/2000/svg">
<rect width="64" height="64" rx="32" fill="#F28347"/>
<path d="M31.6002 19.74C31.7264 19.6849 31.8626 19.6565 32.0002 19.6565C32.1379 19.6565 32.2741 19.6849 32.4002 19.74C37.331 21.8952 42.0343 24.5372 46.4402 27.6266C46.5955 27.7355 46.7166 27.8863 46.7894 28.0614C46.8623 28.2366 46.8838 28.4288 46.8515 28.6156C46.8192 28.8025 46.7344 28.9764 46.6071 29.1169C46.4797 29.2574 46.3151 29.3588 46.1322 29.4093C41.5581 30.6726 37.1321 32.4212 32.9296 34.6253L32.9256 34.628C32.7736 34.708 32.6229 34.7866 32.4722 34.868C32.3272 34.9455 32.1653 34.986 32.0009 34.986C31.8365 34.986 31.6746 34.9455 31.5296 34.868C29.7271 33.9061 27.8821 33.026 26.0002 32.2306V31.932C26.0002 31.7573 26.0896 31.6013 26.2296 31.5173C28.2421 30.2977 30.3125 29.1764 32.4336 28.1573C32.6726 28.0424 32.8562 27.8372 32.944 27.5869C33.0318 27.3366 33.0165 27.0617 32.9016 26.8226C32.7867 26.5836 32.5815 26.4 32.3312 26.3122C32.0809 26.2245 31.806 26.2397 31.5669 26.3546C29.388 27.4017 27.261 28.5537 25.1936 29.8066C24.8994 29.9851 24.6457 30.2228 24.4485 30.5047C24.2513 30.7866 24.115 31.1065 24.0482 31.444C22.0232 30.6648 19.9612 29.9853 17.8696 29.408C17.6868 29.3575 17.5221 29.2561 17.3947 29.1156C17.2674 28.975 17.1826 28.8012 17.1503 28.6143C17.1181 28.4274 17.1396 28.2352 17.2124 28.0601C17.2852 27.885 17.4063 27.7342 17.5616 27.6253C21.9672 24.5364 26.67 21.8949 31.6002 19.74Z" fill="white"/>
<path d="M33.4137 36.6308C36.6887 34.881 40.1085 33.417 43.635 32.2548C43.8137 34.1401 43.9283 36.0454 43.975 37.9668C43.9802 38.1682 43.9244 38.3664 43.8149 38.5356C43.7055 38.7048 43.5475 38.8369 43.3617 38.9148C39.582 40.4933 35.9631 42.432 32.555 44.7041C32.3907 44.8136 32.1978 44.872 32.0003 44.872C31.8029 44.872 31.6099 44.8136 31.4457 44.7041C28.038 42.4321 24.4195 40.4934 20.6403 38.9148C20.4545 38.8372 20.2964 38.7053 20.1867 38.5364C20.077 38.3675 20.0209 38.1694 20.0257 37.9681C20.0723 36.0454 20.187 34.1414 20.3657 32.2534C21.5937 32.6588 22.8057 33.0988 24.0003 33.5734V35.2668C23.7123 35.4327 23.4701 35.6679 23.2958 35.951C23.1214 36.2342 23.0204 36.5563 23.0019 36.8882C22.9834 37.2202 23.0479 37.5515 23.1896 37.8523C23.3314 38.1531 23.5458 38.4137 23.8137 38.6108C23.6937 39.1174 23.5177 39.6148 23.2843 40.0908C23.887 40.3748 24.4857 40.6694 25.079 40.9708C25.4135 40.2904 25.6603 39.5705 25.8137 38.8281C26.1509 38.6782 26.44 38.4379 26.6491 38.1338C26.8582 37.8298 26.9791 37.4738 26.9984 37.1053C27.0177 36.7368 26.9347 36.3701 26.7586 36.0459C26.5824 35.7216 26.32 35.4524 26.0003 35.2681V34.4081C27.5578 35.0885 29.0879 35.8299 30.587 36.6308C31.0219 36.863 31.5073 36.9845 32.0003 36.9845C32.4934 36.9845 32.9788 36.863 33.4137 36.6308Z" fill="white"/>
<path d="M21.9497 41.9494C22.5097 41.3907 22.9537 40.7627 23.283 40.0894C23.887 40.3747 24.4857 40.6694 25.079 40.972C24.6427 41.8581 24.0634 42.6663 23.3643 43.364C23.1748 43.5407 22.924 43.6368 22.665 43.6323C22.4059 43.6277 22.1587 43.5227 21.9755 43.3395C21.7923 43.1563 21.6873 42.9091 21.6828 42.6501C21.6782 42.391 21.7744 42.1403 21.951 41.9507L21.9497 41.9494Z" fill="white"/>
</svg>
