<svg width="64" height="64" viewBox="0 0 64 64" fill="none" xmlns="http://www.w3.org/2000/svg">
<rect width="64" height="64" rx="32" fill="#00B533"/>
<path d="M23.5 21C22.5717 21 21.6815 21.3687 21.0251 22.0251C20.3687 22.6815 20 23.5717 20 24.5C20 25.4283 20.3687 26.3185 21.0251 26.9749C21.6815 27.6313 22.5717 28 23.5 28H40.5C41.4283 28 42.3185 27.6313 42.9749 26.9749C43.6313 26.3185 44 25.4283 44 24.5C44 23.5717 43.6313 22.6815 42.9749 22.0251C42.3185 21.3687 41.4283 21 40.5 21H23.5ZM21 31C20.7348 31 20.4804 31.1054 20.2929 31.2929C20.1054 31.4804 20 31.7348 20 32C20 32.2652 20.1054 32.5196 20.2929 32.7071C20.4804 32.8946 20.7348 33 21 33H43C43.2652 33 43.5196 32.8946 43.7071 32.7071C43.8946 32.5196 44 32.2652 44 32C44 31.7348 43.8946 31.4804 43.7071 31.2929C43.5196 31.1054 43.2652 31 43 31H21ZM20 37C20 36.7348 20.1054 36.4804 20.2929 36.2929C20.4804 36.1054 20.7348 36 21 36H43C43.2652 36 43.5196 36.1054 43.7071 36.2929C43.8946 36.4804 44 36.7348 44 37C44 37.2652 43.8946 37.5196 43.7071 37.7071C43.5196 37.8946 43.2652 38 43 38H21C20.7348 38 20.4804 37.8946 20.2929 37.7071C20.1054 37.5196 20 37.2652 20 37ZM21 41C20.7348 41 20.4804 41.1054 20.2929 41.2929C20.1054 41.4804 20 41.7348 20 42C20 42.2652 20.1054 42.5196 20.2929 42.7071C20.4804 42.8946 20.7348 43 21 43H43C43.2652 43 43.5196 42.8946 43.7071 42.7071C43.8946 42.5196 44 42.2652 44 42C44 41.7348 43.8946 41.4804 43.7071 41.2929C43.5196 41.1054 43.2652 41 43 41H21Z" fill="white"/>
</svg>
