<svg width="64" height="64" viewBox="0 0 64 64" fill="none" xmlns="http://www.w3.org/2000/svg">
<rect width="64" height="64" rx="32" fill="#333333"/>
<path fill-rule="evenodd" clip-rule="evenodd" d="M19 23C19 21.9391 19.4214 20.9217 20.1716 20.1716C20.9217 19.4214 21.9391 19 23 19H41C42.0609 19 43.0783 19.4214 43.8284 20.1716C44.5786 20.9217 45 21.9391 45 23V36C45 37.0609 44.5786 38.0783 43.8284 38.8284C43.0783 39.5786 42.0609 40 41 40H37V40.3427C37 41.1387 37.316 41.9027 37.8787 42.464L38.7067 43.2933C38.8463 43.4332 38.9414 43.6113 38.98 43.8052C39.0185 43.999 38.9987 44.1999 38.9231 44.3826C38.8474 44.5652 38.7194 44.7213 38.5551 44.8312C38.3908 44.9411 38.1977 44.9998 38 45H26C25.8023 44.9998 25.6092 44.9411 25.4449 44.8312C25.2806 44.7213 25.1526 44.5652 25.077 44.3826C25.0013 44.1999 24.9815 43.999 25.02 43.8052C25.0586 43.6113 25.1537 43.4332 25.2933 43.2933L26.1213 42.464C26.6836 41.9017 26.9997 41.1392 27 40.344V40H23C21.9391 40 20.9217 39.5786 20.1716 38.8284C19.4214 38.0783 19 37.0609 19 36V23ZM21 23V33C21 33.5304 21.2107 34.0391 21.5858 34.4142C21.9609 34.7893 22.4696 35 23 35H41C41.5304 35 42.0391 34.7893 42.4142 34.4142C42.7893 34.0391 43 33.5304 43 33V23C43 22.4696 42.7893 21.9609 42.4142 21.5858C42.0391 21.2107 41.5304 21 41 21H23C22.4696 21 21.9609 21.2107 21.5858 21.5858C21.2107 21.9609 21 22.4696 21 23Z" fill="white"/>
</svg>
